<?xml version="1.0" encoding="UTF-8"?>
<!DOCTYPE svg PUBLIC "-//W3C//DTD SVG 1.1//EN" "http://www.w3.org/Graphics/SVG/1.1/DTD/svg11.dtd">
<svg xmlns="http://www.w3.org/2000/svg" version="1.1" width="3100px" height="1458px" style="shape-rendering:geometricPrecision; text-rendering:geometricPrecision; image-rendering:optimizeQuality; fill-rule:evenodd; clip-rule:evenodd" xmlns:xlink="http://www.w3.org/1999/xlink">
<g><path style="opacity:0.879" fill="#46bbb0" d="M 1164.5,-0.5 C 1165.17,-0.5 1165.83,-0.5 1166.5,-0.5C 1197.39,57.6052 1228.55,115.605 1260,173.5C 1275.94,342.149 1291.27,510.815 1306,679.5C 1272.75,617.325 1239.75,554.992 1207,492.5C 1204.66,453.75 1201.66,415.084 1198,376.5C 1204.08,385.252 1210.91,393.418 1218.5,401C 1222.91,404.91 1227.91,407.743 1233.5,409.5C 1236.81,408.028 1239.31,405.695 1241,402.5C 1242.73,397.65 1243.73,392.65 1244,387.5C 1244.5,359.213 1241.84,331.213 1236,303.5C 1221.87,238.783 1201.54,176.116 1175,115.5C 1171.5,76.8068 1168,38.1402 1164.5,-0.5 Z"/></g>
<g><path style="opacity:0.976" fill="#46bbb0" d="M 2081.5,-0.5 C 2082.17,-0.5 2082.83,-0.5 2083.5,-0.5C 2080.51,38.5019 2077.35,77.5019 2074,116.5C 2040.21,200.15 2020.05,286.983 2013.5,377C 2013.86,385.63 2015.02,394.13 2017,402.5C 2019.39,409.288 2023.56,410.788 2029.5,407C 2039.13,397.875 2047.46,387.709 2054.5,376.5C 2054.83,377 2055.17,377.5 2055.5,378C 2051.21,416.398 2048.05,454.898 2046,493.5C 2017.76,555.65 1989.26,617.65 1960.5,679.5C 1973.01,510.975 1986.18,342.308 2000,173.5C 2027.45,115.599 2054.62,57.5988 2081.5,-0.5 Z"/></g>
<g><path style="opacity:0.94" fill="#46bab0" d="M 1867.5,879.5 C 1865.18,882.135 1863.34,885.135 1862,888.5C 1840.46,934.916 1818.96,981.25 1797.5,1027.5C 1765.56,1095.04 1733.9,1162.71 1702.5,1230.5C 1700.18,1233.13 1698.34,1236.13 1697,1239.5C 1685.82,1263.85 1674.65,1288.19 1663.5,1312.5C 1661.17,1315.83 1659.34,1319.49 1658,1323.5C 1647.62,1298.36 1637.62,1273.03 1628,1247.5C 1620.03,1242.1 1611.86,1237.1 1603.5,1232.5C 1602.83,1231.5 1602.17,1230.5 1601.5,1229.5C 1601.5,1228.83 1601.17,1228.5 1600.5,1228.5C 1564.77,1161.37 1528.77,1094.37 1492.5,1027.5C 1492.5,1027.17 1492.5,1026.83 1492.5,1026.5C 1500.83,1023.28 1509.5,1021.44 1518.5,1021C 1528.54,1020.84 1538.54,1020.67 1548.5,1020.5C 1537.7,988.103 1526.7,955.77 1515.5,923.5C 1482.16,908.719 1448.49,894.719 1414.5,881.5C 1413.5,881.167 1412.83,880.5 1412.5,879.5C 1412.5,878.833 1412.17,878.5 1411.5,878.5C 1384.49,828.643 1357.66,778.643 1331,728.5C 1315.64,559.487 1300.64,390.487 1286,221.5C 1399.18,431.182 1511.84,641.182 1624,851.5C 1627.05,885.491 1630.05,919.491 1633,953.5C 1633.83,958.202 1633.66,962.869 1632.5,967.5C 1626.05,959.212 1618.71,951.712 1610.5,945C 1596.41,935.294 1588.91,939.127 1588,956.5C 1587.54,986.823 1590.54,1016.82 1597,1046.5C 1608.95,1109.33 1628.45,1169.67 1655.5,1227.5C 1686.6,1151.08 1706.1,1071.75 1714,989.5C 1714.67,977.5 1714.67,965.5 1714,953.5C 1713.52,948.379 1711.69,943.879 1708.5,940C 1704.88,939.159 1701.55,939.826 1698.5,942C 1689.88,949.779 1682.21,958.279 1675.5,967.5C 1677.13,928.847 1679.63,890.18 1683,851.5C 1781,641.5 1879,431.5 1977,221.5C 1964.72,390.53 1951.72,559.53 1938,728.5C 1914.49,778.855 1890.99,829.188 1867.5,879.5 Z"/></g>
<g><path style="opacity:0.789" fill="#7e61aa" d="M 640.5,562.5 C 694.145,583.987 747.812,605.487 801.5,627C 808.555,629.791 815.388,632.958 822,636.5C 874.505,780.017 927.005,923.517 979.5,1067C 977.447,1067.32 975.447,1066.99 973.5,1066C 912.5,1039.83 851.5,1013.67 790.5,987.5C 785.493,971.147 780.326,954.813 775,938.5C 767.999,921.66 761.499,904.66 755.5,887.5C 769.778,889.343 784.111,889.843 798.5,889C 822.924,885.241 833.757,871.075 831,846.5C 825.161,816.161 812.827,788.828 794,764.5C 760.44,722.928 720.773,688.595 675,661.5C 663.193,628.578 651.693,595.578 640.5,562.5 Z"/></g>
<g><path style="opacity:0.986" fill="#7e61aa" d="M 2538.5,562.5 C 2540.34,563.204 2540.84,564.537 2540,566.5C 2530.13,597.773 2520.46,629.106 2511,660.5C 2474.82,686.007 2443.16,716.34 2416,751.5C 2397.66,776.191 2384.66,803.524 2377,833.5C 2374.31,844.112 2373.98,854.778 2376,865.5C 2380.22,879.048 2389.39,886.881 2403.5,889C 2416.23,889.65 2428.89,889.317 2441.5,888C 2429.06,920.489 2418.73,953.656 2410.5,987.5C 2356.38,1013.73 2302.38,1040.23 2248.5,1067C 2247.5,1067.67 2246.5,1067.67 2245.5,1067C 2291.38,923.313 2336.88,779.479 2382,635.5C 2434.3,611.263 2486.47,586.93 2538.5,562.5 Z"/></g>
<g><path style="opacity:0.797" fill="#7f61aa" d="M 1411.5,878.5 C 1412.17,878.5 1412.5,878.833 1412.5,879.5C 1412.83,880.5 1413.5,881.167 1414.5,881.5C 1440.23,929.966 1466.23,978.299 1492.5,1026.5C 1492.5,1026.83 1492.5,1027.17 1492.5,1027.5C 1480.37,1032.9 1474.37,1042.4 1474.5,1056C 1477.61,1079.32 1485.11,1101.15 1497,1121.5C 1523.19,1165.19 1557.69,1200.86 1600.5,1228.5C 1601.17,1228.5 1601.5,1228.83 1601.5,1229.5C 1602.17,1230.5 1602.83,1231.5 1603.5,1232.5C 1619.02,1260.21 1634.02,1288.21 1648.5,1316.5C 1647.65,1323.14 1646.99,1329.81 1646.5,1336.5C 1642.49,1335.16 1638.49,1333.83 1634.5,1332.5C 1607.27,1317.88 1580.27,1302.71 1553.5,1287C 1533.03,1284.57 1512.69,1281.4 1492.5,1277.5C 1489.5,1276.83 1486.5,1276.17 1483.5,1275.5C 1483.5,1274.83 1483.17,1274.5 1482.5,1274.5C 1482.17,1274.5 1481.83,1274.5 1481.5,1274.5C 1414.4,1246.46 1347.07,1218.8 1279.5,1191.5C 1277.67,1190.75 1276,1189.75 1274.5,1188.5C 1261.93,1174.82 1264.26,1164.32 1281.5,1157C 1292.21,1153.63 1302.88,1150.3 1313.5,1147C 1279.76,1126.27 1245.76,1105.94 1211.5,1086C 1149.51,1083.21 1087.51,1080.71 1025.5,1078.5C 1024.83,1078.17 1024.17,1077.83 1023.5,1077.5C 973.836,939.344 923.67,801.344 873,663.5C 871.682,660.57 871.015,657.57 871,654.5C 1050.98,729.66 1231.15,804.326 1411.5,878.5 Z"/></g>
<g><path style="opacity:0.996" fill="#7f61a9" d="M 2206.5,1077.5 C 2204.39,1080.88 2202.72,1084.54 2201.5,1088.5C 2179.44,1098.86 2157.44,1109.2 2135.5,1119.5C 2096.31,1137.6 2057.31,1155.93 2018.5,1174.5C 2006.47,1180.17 1994.47,1185.84 1982.5,1191.5C 1981.83,1191.5 1981.5,1191.83 1981.5,1192.5C 1923.86,1218.99 1866.52,1245.99 1809.5,1273.5C 1808.51,1273.33 1807.84,1273.66 1807.5,1274.5C 1794.49,1278.88 1782.16,1284.55 1770.5,1291.5C 1735.6,1306.95 1700.93,1322.95 1666.5,1339.5C 1665.26,1330.54 1664.26,1321.54 1663.5,1312.5C 1674.65,1288.19 1685.82,1263.85 1697,1239.5C 1698.34,1236.13 1700.18,1233.13 1702.5,1230.5C 1753.24,1191.89 1788.74,1142.23 1809,1081.5C 1813.06,1068.58 1813.73,1055.58 1811,1042.5C 1808.74,1035.41 1804.24,1030.41 1797.5,1027.5C 1818.96,981.25 1840.46,934.916 1862,888.5C 1863.34,885.135 1865.18,882.135 1867.5,879.5C 2024.72,804.642 2181.88,729.642 2339,654.5C 2338.99,658.225 2338.32,661.892 2337,665.5C 2292.99,802.698 2249.49,940.032 2206.5,1077.5 Z"/></g>
<g><path style="opacity:0.98" fill="#4eb2b1" d="M 1414.5,881.5 C 1448.49,894.719 1482.16,908.719 1515.5,923.5C 1526.7,955.77 1537.7,988.103 1548.5,1020.5C 1538.54,1020.67 1528.54,1020.84 1518.5,1021C 1509.5,1021.44 1500.83,1023.28 1492.5,1026.5C 1466.23,978.299 1440.23,929.966 1414.5,881.5 Z"/></g>
<g><path style="opacity:0.784" fill="#cd60a4" d="M 597.5,1169.5 C 574.399,1172.74 551.066,1175.08 527.5,1176.5C 527.167,1176.5 526.833,1176.5 526.5,1176.5C 473.68,1150.61 418.347,1131.78 360.5,1120C 336.261,1115.13 311.928,1110.79 287.5,1107C 252.833,1086.67 218.167,1066.33 183.5,1046C 253.823,1048.1 324.156,1050.44 394.5,1053C 462.523,1091.34 530.19,1130.17 597.5,1169.5 Z"/></g>
<g><path style="opacity:0.784" fill="#cd60a4" d="M 2640.5,1177.5 C 2639.5,1177.5 2638.5,1177.5 2637.5,1177.5C 2617.3,1175.33 2597.3,1172.67 2577.5,1169.5C 2636.13,1130.18 2695.13,1091.35 2754.5,1053C 2815.84,1050.43 2877.18,1048.09 2938.5,1046C 2908.77,1066.72 2878.77,1087.06 2848.5,1107C 2791.49,1115.78 2736.49,1131.45 2683.5,1154C 2668.46,1160.85 2654.13,1168.68 2640.5,1177.5 Z"/></g>
<g><path style="opacity:0.793" fill="#cd60a4" d="M 1023.5,1077.5 C 1024.17,1077.83 1024.83,1078.17 1025.5,1078.5C 1025.85,1082.23 1027.19,1085.56 1029.5,1088.5C 1054.43,1098.47 1079.1,1108.8 1103.5,1119.5C 950.989,1134.95 798.323,1150.28 645.5,1165.5C 644.5,1165.5 643.5,1165.5 642.5,1165.5C 579.066,1128.95 515.732,1092.11 452.5,1055C 642.823,1062.35 833.156,1069.85 1023.5,1077.5 Z"/></g>
<g><path style="opacity:0.793" fill="#cd60a4" d="M 2538.5,1165.5 C 2537.5,1165.5 2536.5,1165.5 2535.5,1165.5C 2402.01,1150.34 2268.67,1135 2135.5,1119.5C 2157.44,1109.2 2179.44,1098.86 2201.5,1088.5C 2202.72,1084.54 2204.39,1080.88 2206.5,1077.5C 2370.68,1070.13 2534.85,1062.47 2699,1054.5C 2700.5,1054.83 2702,1055.17 2703.5,1055.5C 2648.46,1092.23 2593.46,1128.89 2538.5,1165.5 Z"/></g>
<g><path style="opacity:0.961" fill="#8d60a8" d="M 1025.5,1078.5 C 1087.51,1080.71 1149.51,1083.21 1211.5,1086C 1245.76,1105.94 1279.76,1126.27 1313.5,1147C 1302.88,1150.3 1292.21,1153.63 1281.5,1157C 1264.26,1164.32 1261.93,1174.82 1274.5,1188.5C 1262.87,1184.35 1251.54,1179.68 1240.5,1174.5C 1242.48,1173.51 1244.48,1172.51 1246.5,1171.5C 1207.29,1154.06 1167.96,1136.9 1128.5,1120C 1125.59,1119.01 1122.59,1118.51 1119.5,1118.5C 1115.17,1118.93 1110.84,1119.26 1106.5,1119.5C 1105.5,1119.5 1104.5,1119.5 1103.5,1119.5C 1079.1,1108.8 1054.43,1098.47 1029.5,1088.5C 1027.19,1085.56 1025.85,1082.23 1025.5,1078.5 Z"/></g>
<g><path style="opacity:1" fill="#885da1" d="M 1240.5,1174.5 C 1239.83,1174.5 1239.17,1174.5 1238.5,1174.5C 1194.5,1156.17 1150.5,1137.83 1106.5,1119.5C 1110.84,1119.26 1115.17,1118.93 1119.5,1118.5C 1122.59,1118.51 1125.59,1119.01 1128.5,1120C 1167.96,1136.9 1207.29,1154.06 1246.5,1171.5C 1244.48,1172.51 1242.48,1173.51 1240.5,1174.5 Z"/></g>
<g><path style="opacity:1" fill="#a35583" d="M 1103.5,1119.5 C 1104.5,1119.5 1105.5,1119.5 1106.5,1119.5C 1150.5,1137.83 1194.5,1156.17 1238.5,1174.5C 1227.66,1178.92 1217.32,1184.42 1207.5,1191C 1199.18,1197.33 1197.35,1205.16 1202,1214.5C 1205.87,1218.7 1210.03,1222.53 1214.5,1226C 1225.97,1233.07 1237.97,1239.07 1250.5,1244C 1338.51,1276.67 1429.51,1292.5 1523.5,1291.5C 1565.27,1307.88 1606.94,1324.55 1648.5,1341.5C 1650.26,1342.31 1651.93,1343.31 1653.5,1344.5C 1651.52,1345 1649.52,1345.5 1647.5,1346C 1646.66,1347.01 1646.33,1348.18 1646.5,1349.5C 1646.17,1349.5 1645.83,1349.5 1645.5,1349.5C 1645.5,1348.17 1645.5,1346.83 1645.5,1345.5C 1639.26,1345.85 1633.26,1346.85 1627.5,1348.5C 1626.5,1348.5 1625.5,1348.5 1624.5,1348.5C 1388.01,1339.03 1151.34,1329.86 914.5,1321C 824.444,1269.65 734.777,1217.81 645.5,1165.5C 798.323,1150.28 950.989,1134.95 1103.5,1119.5 Z"/></g>
<g><path style="opacity:1" fill="#a35583" d="M 2135.5,1119.5 C 2268.67,1135 2402.01,1150.34 2535.5,1165.5C 2457.74,1217.56 2379.74,1269.39 2301.5,1321C 2095.01,1330.08 1888.67,1339.25 1682.5,1348.5C 1677.5,1348.5 1672.5,1348.5 1667.5,1348.5C 1666.6,1345.61 1666.26,1342.61 1666.5,1339.5C 1700.93,1322.95 1735.6,1306.95 1770.5,1291.5C 1859.48,1292.47 1944.14,1273.97 2024.5,1236C 2032.96,1231.02 2040.79,1225.19 2048,1218.5C 2054.36,1211.28 2055.03,1203.62 2050,1195.5C 2040.86,1186.36 2030.36,1179.36 2018.5,1174.5C 2057.31,1155.93 2096.31,1137.6 2135.5,1119.5 Z"/></g>
<g><path style="opacity:0.992" fill="#212121" d="M 642.5,1165.5 C 643.5,1165.5 644.5,1165.5 645.5,1165.5C 734.777,1217.81 824.444,1269.65 914.5,1321C 1151.34,1329.86 1388.01,1339.03 1624.5,1348.5C 1364.58,1375.08 1104.74,1402.08 845,1429.5C 661.125,1353.48 477.291,1277.31 293.5,1201C 371.254,1192.69 448.92,1184.53 526.5,1176.5C 526.833,1176.5 527.167,1176.5 527.5,1176.5C 540.194,1183.68 552.528,1191.51 564.5,1200C 568.806,1204.06 572.973,1208.23 577,1212.5C 581.986,1218.06 582.652,1224.06 579,1230.5C 570.069,1237.62 559.902,1242.12 548.5,1244C 541.833,1245 535.167,1246 528.5,1247C 564.121,1265.81 598.787,1286.14 632.5,1308C 706.804,1312.19 781.137,1315.52 855.5,1318C 769.444,1268.98 683.777,1219.48 598.5,1169.5C 613.179,1168.3 627.846,1166.97 642.5,1165.5 Z"/></g>
<g><path style="opacity:0.992" fill="#212121" d="M 2535.5,1165.5 C 2536.5,1165.5 2537.5,1165.5 2538.5,1165.5C 2551.14,1167.05 2563.81,1168.39 2576.5,1169.5C 2502.58,1219.47 2428.24,1268.97 2353.5,1318C 2418.22,1315.85 2482.88,1312.52 2547.5,1308C 2576.64,1286.59 2606.64,1266.43 2637.5,1247.5C 2626.86,1245.76 2616.53,1242.92 2606.5,1239C 2590.99,1229.79 2589.49,1218.62 2602,1205.5C 2612.87,1194.78 2624.7,1185.45 2637.5,1177.5C 2638.5,1177.5 2639.5,1177.5 2640.5,1177.5C 2707.96,1184.57 2775.29,1192.4 2842.5,1201C 2682.44,1277.36 2522.27,1353.52 2362,1429.5C 2135.59,1402.14 1909.09,1375.14 1682.5,1348.5C 1888.67,1339.25 2095.01,1330.08 2301.5,1321C 2379.74,1269.39 2457.74,1217.56 2535.5,1165.5 Z"/></g>
<g><path style="opacity:1" fill="#a35583" d="M 597.5,1169.5 C 597.833,1169.5 598.167,1169.5 598.5,1169.5C 683.777,1219.48 769.444,1268.98 855.5,1318C 781.137,1315.52 706.804,1312.19 632.5,1308C 598.787,1286.14 564.121,1265.81 528.5,1247C 535.167,1246 541.833,1245 548.5,1244C 559.902,1242.12 570.069,1237.62 579,1230.5C 582.652,1224.06 581.986,1218.06 577,1212.5C 572.973,1208.23 568.806,1204.06 564.5,1200C 552.528,1191.51 540.194,1183.68 527.5,1176.5C 551.066,1175.08 574.399,1172.74 597.5,1169.5 Z"/></g>
<g><path style="opacity:1" fill="#a35583" d="M 2576.5,1169.5 C 2576.83,1169.5 2577.17,1169.5 2577.5,1169.5C 2597.3,1172.67 2617.3,1175.33 2637.5,1177.5C 2624.7,1185.45 2612.87,1194.78 2602,1205.5C 2589.49,1218.62 2590.99,1229.79 2606.5,1239C 2616.53,1242.92 2626.86,1245.76 2637.5,1247.5C 2606.64,1266.43 2576.64,1286.59 2547.5,1308C 2482.88,1312.52 2418.22,1315.85 2353.5,1318C 2428.24,1268.97 2502.58,1219.47 2576.5,1169.5 Z"/></g>
<g><path style="opacity:0.792" fill="#cd60a4" d="M 1238.5,1174.5 C 1239.17,1174.5 1239.83,1174.5 1240.5,1174.5C 1251.54,1179.68 1262.87,1184.35 1274.5,1188.5C 1276,1189.75 1277.67,1190.75 1279.5,1191.5C 1288.24,1198.72 1297.58,1205.22 1307.5,1211C 1362.5,1240.33 1420.5,1261.5 1481.5,1274.5C 1481.83,1274.5 1482.17,1274.5 1482.5,1274.5C 1483.17,1274.5 1483.5,1274.83 1483.5,1275.5C 1486.5,1276.17 1489.5,1276.83 1492.5,1277.5C 1502.83,1282.17 1513.17,1286.83 1523.5,1291.5C 1429.51,1292.5 1338.51,1276.67 1250.5,1244C 1237.97,1239.07 1225.97,1233.07 1214.5,1226C 1210.03,1222.53 1205.87,1218.7 1202,1214.5C 1197.35,1205.16 1199.18,1197.33 1207.5,1191C 1217.32,1184.42 1227.66,1178.92 1238.5,1174.5 Z"/></g>
<g><path style="opacity:0.793" fill="#cd60a4" d="M 2018.5,1174.5 C 2030.36,1179.36 2040.86,1186.36 2050,1195.5C 2055.03,1203.62 2054.36,1211.28 2048,1218.5C 2040.79,1225.19 2032.96,1231.02 2024.5,1236C 1944.14,1273.97 1859.48,1292.47 1770.5,1291.5C 1782.16,1284.55 1794.49,1278.88 1807.5,1274.5C 1808.49,1274.67 1809.16,1274.34 1809.5,1273.5C 1867.86,1259.23 1921.86,1235.39 1971.5,1202C 1975.33,1199.33 1978.67,1196.17 1981.5,1192.5C 1982.17,1192.5 1982.5,1192.17 1982.5,1191.5C 1994.47,1185.84 2006.47,1180.17 2018.5,1174.5 Z"/></g>
<g><path style="opacity:0.984" fill="#202120" d="M 540.5,1457.5 C 538.167,1457.5 535.833,1457.5 533.5,1457.5C 513.283,1447.23 492.616,1437.73 471.5,1429C 450.713,1421.11 430.046,1412.94 409.5,1404.5C 423.245,1400.42 436.578,1395.25 449.5,1389C 452.667,1386.5 455.833,1384 459,1381.5C 463.657,1375.21 463.657,1368.87 459,1362.5C 451.967,1354.8 443.8,1348.63 434.5,1344C 385.618,1320.49 334.284,1304.82 280.5,1297C 228.479,1288.98 176.146,1284.98 123.5,1285C 82.0254,1267.76 40.6921,1250.26 -0.5,1232.5C -0.5,1232.17 -0.5,1231.83 -0.5,1231.5C 77.129,1223.04 154.796,1215.21 232.5,1208C 415.322,1283.22 597.988,1358.72 780.5,1434.5C 700.356,1442.18 620.356,1449.85 540.5,1457.5 Z"/></g>
<g><path style="opacity:0.984" fill="#202120" d="M 3099.5,1231.5 C 3099.5,1231.83 3099.5,1232.17 3099.5,1232.5C 3063.4,1249.71 3027.4,1267.21 2991.5,1285C 2926.3,1284.35 2862.3,1292.69 2799.5,1310C 2767.19,1318.87 2737.19,1332.54 2709.5,1351C 2706,1354.5 2702.5,1358 2699,1361.5C 2692.8,1372.37 2694.97,1381.21 2705.5,1388C 2716.85,1394.84 2728.85,1400.34 2741.5,1404.5C 2724.32,1412.59 2706.98,1420.42 2689.5,1428C 2670.3,1437.1 2651.63,1446.93 2633.5,1457.5C 2631.5,1457.5 2629.5,1457.5 2627.5,1457.5C 2557.62,1449.98 2487.62,1442.31 2417.5,1434.5C 2576.47,1359.02 2735.47,1283.52 2894.5,1208C 2897.5,1207.33 2900.5,1207.33 2903.5,1208C 2968.82,1216 3034.16,1223.83 3099.5,1231.5 Z"/></g>
<g><path style="opacity:0.984" fill="#50b1b0" d="M 1603.5,1232.5 C 1611.86,1237.1 1620.03,1242.1 1628,1247.5C 1637.62,1273.03 1647.62,1298.36 1658,1323.5C 1659.34,1319.49 1661.17,1315.83 1663.5,1312.5C 1664.26,1321.54 1665.26,1330.54 1666.5,1339.5C 1666.26,1342.61 1666.6,1345.61 1667.5,1348.5C 1667.5,1349.17 1667.17,1349.5 1666.5,1349.5C 1665.9,1346.68 1664.57,1344.35 1662.5,1342.5C 1660.93,1337.68 1658.59,1333.35 1655.5,1329.5C 1653.93,1324.68 1651.59,1320.35 1648.5,1316.5C 1634.02,1288.21 1619.02,1260.21 1603.5,1232.5 Z"/></g>
<g><path style="opacity:0.959" fill="#8c60a6" d="M 1492.5,1277.5 C 1512.69,1281.4 1533.03,1284.57 1553.5,1287C 1580.27,1302.71 1607.27,1317.88 1634.5,1332.5C 1639.17,1335.5 1643.83,1338.5 1648.5,1341.5C 1606.94,1324.55 1565.27,1307.88 1523.5,1291.5C 1513.17,1286.83 1502.83,1282.17 1492.5,1277.5 Z"/></g>
<g><path style="opacity:1" fill="#7774ab" d="M 1648.5,1316.5 C 1651.59,1320.35 1653.93,1324.68 1655.5,1329.5C 1653.41,1332.09 1652.07,1335.09 1651.5,1338.5C 1649.6,1338.2 1647.93,1337.54 1646.5,1336.5C 1646.99,1329.81 1647.65,1323.14 1648.5,1316.5 Z"/></g>
<g><path style="opacity:1" fill="#7e63a9" d="M 1655.5,1329.5 C 1658.59,1333.35 1660.93,1337.68 1662.5,1342.5C 1658.46,1341.93 1654.8,1340.6 1651.5,1338.5C 1652.07,1335.09 1653.41,1332.09 1655.5,1329.5 Z"/></g>
<g><path style="opacity:1" fill="#765991" d="M 1634.5,1332.5 C 1638.49,1333.83 1642.49,1335.16 1646.5,1336.5C 1647.93,1337.54 1649.6,1338.2 1651.5,1338.5C 1654.8,1340.6 1658.46,1341.93 1662.5,1342.5C 1664.57,1344.35 1665.9,1346.68 1666.5,1349.5C 1665.83,1349.5 1665.17,1349.5 1664.5,1349.5C 1661.28,1347.06 1657.61,1345.39 1653.5,1344.5C 1651.93,1343.31 1650.26,1342.31 1648.5,1341.5C 1643.83,1338.5 1639.17,1335.5 1634.5,1332.5 Z"/></g>
<g><path style="opacity:0.797" fill="#c960a4" d="M 1653.5,1344.5 C 1657.61,1345.39 1661.28,1347.06 1664.5,1349.5C 1658.5,1349.5 1652.5,1349.5 1646.5,1349.5C 1646.33,1348.18 1646.66,1347.01 1647.5,1346C 1649.52,1345.5 1651.52,1345 1653.5,1344.5 Z"/></g>
<g><path style="opacity:0.663" fill="#ca60a2" d="M 1645.5,1349.5 C 1639.59,1348.54 1633.59,1348.21 1627.5,1348.5C 1633.26,1346.85 1639.26,1345.85 1645.5,1345.5C 1645.5,1346.83 1645.5,1348.17 1645.5,1349.5 Z"/></g>
</svg>
