<svg id="visual" viewBox="0 0 1920 1080" width="1920" height="1080" xmlns="http://www.w3.org/2000/svg" xmlns:xlink="http://www.w3.org/1999/xlink" version="1.1"><rect x="0" y="0" width="1920" height="1080" fill="#fdfdfd"></rect><path d="M0 831L32 838.3C64 845.7 128 860.3 192 863.2C256 866 320 857 384 858C448 859 512 870 576 873.3C640 876.7 704 872.3 768 871.3C832 870.3 896 872.7 960 868.5C1024 864.3 1088 853.7 1152 854.2C1216 854.7 1280 866.3 1344 871C1408 875.7 1472 873.3 1536 876.2C1600 879 1664 887 1728 883.7C1792 880.3 1856 865.7 1888 858.3L1920 851L1920 1081L1888 1081C1856 1081 1792 1081 1728 1081C1664 1081 1600 1081 1536 1081C1472 1081 1408 1081 1344 1081C1280 1081 1216 1081 1152 1081C1088 1081 1024 1081 960 1081C896 1081 832 1081 768 1081C704 1081 640 1081 576 1081C512 1081 448 1081 384 1081C320 1081 256 1081 192 1081C128 1081 64 1081 32 1081L0 1081Z" fill="#7b0ca5"></path><path d="M0 881L32 889C64 897 128 913 192 921C256 929 320 929 384 929.2C448 929.3 512 929.7 576 923.5C640 917.3 704 904.7 768 896.3C832 888 896 884 960 890C1024 896 1088 912 1152 916.3C1216 920.7 1280 913.3 1344 905.2C1408 897 1472 888 1536 886.7C1600 885.3 1664 891.7 1728 893.8C1792 896 1856 894 1888 893L1920 892L1920 1081L1888 1081C1856 1081 1792 1081 1728 1081C1664 1081 1600 1081 1536 1081C1472 1081 1408 1081 1344 1081C1280 1081 1216 1081 1152 1081C1088 1081 1024 1081 960 1081C896 1081 832 1081 768 1081C704 1081 640 1081 576 1081C512 1081 448 1081 384 1081C320 1081 256 1081 192 1081C128 1081 64 1081 32 1081L0 1081Z" fill="#8a17a6"></path><path d="M0 967L32 959.8C64 952.7 128 938.3 192 934C256 929.7 320 935.3 384 938C448 940.7 512 940.3 576 944.7C640 949 704 958 768 955.5C832 953 896 939 960 939C1024 939 1088 953 1152 957.5C1216 962 1280 957 1344 949.3C1408 941.7 1472 931.3 1536 930.7C1600 930 1664 939 1728 942.7C1792 946.3 1856 944.7 1888 943.8L1920 943L1920 1081L1888 1081C1856 1081 1792 1081 1728 1081C1664 1081 1600 1081 1536 1081C1472 1081 1408 1081 1344 1081C1280 1081 1216 1081 1152 1081C1088 1081 1024 1081 960 1081C896 1081 832 1081 768 1081C704 1081 640 1081 576 1081C512 1081 448 1081 384 1081C320 1081 256 1081 192 1081C128 1081 64 1081 32 1081L0 1081Z" fill="#931ea8"></path><path d="M0 984L32 980.8C64 977.7 128 971.3 192 974C256 976.7 320 988.3 384 992C448 995.7 512 991.3 576 988.5C640 985.7 704 984.3 768 982.2C832 980 896 977 960 977.5C1024 978 1088 982 1152 986.5C1216 991 1280 996 1344 995.5C1408 995 1472 989 1536 989.5C1600 990 1664 997 1728 997C1792 997 1856 990 1888 986.5L1920 983L1920 1081L1888 1081C1856 1081 1792 1081 1728 1081C1664 1081 1600 1081 1536 1081C1472 1081 1408 1081 1344 1081C1280 1081 1216 1081 1152 1081C1088 1081 1024 1081 960 1081C896 1081 832 1081 768 1081C704 1081 640 1081 576 1081C512 1081 448 1081 384 1081C320 1081 256 1081 192 1081C128 1081 64 1081 32 1081L0 1081Z" fill="#8a17a6"></path><path d="M0 1009L32 1012.2C64 1015.3 128 1021.7 192 1025.2C256 1028.7 320 1029.3 384 1027C448 1024.7 512 1019.3 576 1016.7C640 1014 704 1014 768 1016.2C832 1018.3 896 1022.7 960 1024.7C1024 1026.7 1088 1026.3 1152 1027.2C1216 1028 1280 1030 1344 1027.7C1408 1025.3 1472 1018.7 1536 1019C1600 1019.3 1664 1026.7 1728 1030.5C1792 1034.3 1856 1034.7 1888 1034.8L1920 1035L1920 1081L1888 1081C1856 1081 1792 1081 1728 1081C1664 1081 1600 1081 1536 1081C1472 1081 1408 1081 1344 1081C1280 1081 1216 1081 1152 1081C1088 1081 1024 1081 960 1081C896 1081 832 1081 768 1081C704 1081 640 1081 576 1081C512 1081 448 1081 384 1081C320 1081 256 1081 192 1081C128 1081 64 1081 32 1081L0 1081Z" fill="#7b0ca5"></path></svg>