<svg id="visual" viewBox="0 0 1920 1080" width="1920" height="1080" xmlns="http://www.w3.org/2000/svg" xmlns:xlink="http://www.w3.org/1999/xlink" version="1.1"><rect x="0" y="0" width="1920" height="1080" fill="#fdfdfd"></rect><path d="M0 918L32 921.2C64 924.3 128 930.7 192 933.7C256 936.7 320 936.3 384 933.2C448 930 512 924 576 921.8C640 919.7 704 921.3 768 926.3C832 931.3 896 939.7 960 939.5C1024 939.3 1088 930.7 1152 930C1216 929.3 1280 936.7 1344 935.3C1408 934 1472 924 1536 922.5C1600 921 1664 928 1728 932.3C1792 936.7 1856 938.3 1888 939.2L1920 940L1920 1081L1888 1081C1856 1081 1792 1081 1728 1081C1664 1081 1600 1081 1536 1081C1472 1081 1408 1081 1344 1081C1280 1081 1216 1081 1152 1081C1088 1081 1024 1081 960 1081C896 1081 832 1081 768 1081C704 1081 640 1081 576 1081C512 1081 448 1081 384 1081C320 1081 256 1081 192 1081C128 1081 64 1081 32 1081L0 1081Z" fill="#7b0ca5"></path><path d="M0 940L32 942.7C64 945.3 128 950.7 192 950.8C256 951 320 946 384 947.3C448 948.7 512 956.3 576 960.2C640 964 704 964 768 963.5C832 963 896 962 960 962.3C1024 962.7 1088 964.3 1152 963C1216 961.7 1280 957.3 1344 958.5C1408 959.7 1472 966.3 1536 965C1600 963.7 1664 954.3 1728 949.8C1792 945.3 1856 945.7 1888 945.8L1920 946L1920 1081L1888 1081C1856 1081 1792 1081 1728 1081C1664 1081 1600 1081 1536 1081C1472 1081 1408 1081 1344 1081C1280 1081 1216 1081 1152 1081C1088 1081 1024 1081 960 1081C896 1081 832 1081 768 1081C704 1081 640 1081 576 1081C512 1081 448 1081 384 1081C320 1081 256 1081 192 1081C128 1081 64 1081 32 1081L0 1081Z" fill="#8715a6"></path><path d="M0 963L32 963C64 963 128 963 192 965.2C256 967.3 320 971.7 384 975.7C448 979.7 512 983.3 576 985.8C640 988.3 704 989.7 768 990C832 990.3 896 989.7 960 985.5C1024 981.3 1088 973.7 1152 970C1216 966.3 1280 966.7 1344 970.8C1408 975 1472 983 1536 984C1600 985 1664 979 1728 978.2C1792 977.3 1856 981.7 1888 983.8L1920 986L1920 1081L1888 1081C1856 1081 1792 1081 1728 1081C1664 1081 1600 1081 1536 1081C1472 1081 1408 1081 1344 1081C1280 1081 1216 1081 1152 1081C1088 1081 1024 1081 960 1081C896 1081 832 1081 768 1081C704 1081 640 1081 576 1081C512 1081 448 1081 384 1081C320 1081 256 1081 192 1081C128 1081 64 1081 32 1081L0 1081Z" fill="#931ea8"></path><path d="M0 999L32 1001.2C64 1003.3 128 1007.7 192 1007.7C256 1007.7 320 1003.3 384 1001.7C448 1000 512 1001 576 1000.3C640 999.7 704 997.3 768 996.5C832 995.7 896 996.3 960 996C1024 995.7 1088 994.3 1152 993.7C1216 993 1280 993 1344 995.7C1408 998.3 1472 1003.7 1536 1004.8C1600 1006 1664 1003 1728 1000.5C1792 998 1856 996 1888 995L1920 994L1920 1081L1888 1081C1856 1081 1792 1081 1728 1081C1664 1081 1600 1081 1536 1081C1472 1081 1408 1081 1344 1081C1280 1081 1216 1081 1152 1081C1088 1081 1024 1081 960 1081C896 1081 832 1081 768 1081C704 1081 640 1081 576 1081C512 1081 448 1081 384 1081C320 1081 256 1081 192 1081C128 1081 64 1081 32 1081L0 1081Z" fill="#931ea8"></path><path d="M0 1016L32 1016.3C64 1016.7 128 1017.3 192 1019.8C256 1022.3 320 1026.7 384 1029.7C448 1032.7 512 1034.3 576 1033C640 1031.7 704 1027.3 768 1024.3C832 1021.3 896 1019.7 960 1020.2C1024 1020.7 1088 1023.3 1152 1024.2C1216 1025 1280 1024 1344 1024C1408 1024 1472 1025 1536 1023.7C1600 1022.3 1664 1018.7 1728 1017.5C1792 1016.3 1856 1017.7 1888 1018.3L1920 1019L1920 1081L1888 1081C1856 1081 1792 1081 1728 1081C1664 1081 1600 1081 1536 1081C1472 1081 1408 1081 1344 1081C1280 1081 1216 1081 1152 1081C1088 1081 1024 1081 960 1081C896 1081 832 1081 768 1081C704 1081 640 1081 576 1081C512 1081 448 1081 384 1081C320 1081 256 1081 192 1081C128 1081 64 1081 32 1081L0 1081Z" fill="#8715a6"></path><path d="M0 1050L32 1048.8C64 1047.7 128 1045.3 192 1044.3C256 1043.3 320 1043.7 384 1044.8C448 1046 512 1048 576 1048.5C640 1049 704 1048 768 1048C832 1048 896 1049 960 1049C1024 1049 1088 1048 1152 1047.8C1216 1047.7 1280 1048.3 1344 1048.3C1408 1048.3 1472 1047.7 1536 1049C1600 1050.3 1664 1053.7 1728 1052.7C1792 1051.7 1856 1046.3 1888 1043.7L1920 1041L1920 1081L1888 1081C1856 1081 1792 1081 1728 1081C1664 1081 1600 1081 1536 1081C1472 1081 1408 1081 1344 1081C1280 1081 1216 1081 1152 1081C1088 1081 1024 1081 960 1081C896 1081 832 1081 768 1081C704 1081 640 1081 576 1081C512 1081 448 1081 384 1081C320 1081 256 1081 192 1081C128 1081 64 1081 32 1081L0 1081Z" fill="#7b0ca5"></path></svg>